HIERARCHY
ROOT root
{
	OFFSET 0.000000 0.000000 0.000000
	CHANNELS 6 Xposition Yposition Zposition Zrotation Yrotation Xrotation
	JOINT lhip
	{
		OFFSET 0.058581 -0.082280 -0.017664
		CHANNELS 3 Zrotation Yrotation Xrotation
		JOINT lknee
		{
			OFFSET 0.043451 -0.386469 0.008037
			CHANNELS 3 Zrotation Yrotation Xrotation
			JOINT lankle
			{
				OFFSET -0.014790 -0.426874 -0.037428
				CHANNELS 3 Zrotation Yrotation Xrotation
				JOINT ltoe
				{
					OFFSET 0.041054 -0.060286 0.122042
					CHANNELS 3 Zrotation Yrotation Xrotation
					End Site
					{
						OFFSET 0.000000 0.000000 0.000000
					}
				}
			}
		}
	}
	JOINT rhip
	{
		OFFSET -0.060310 -0.090513 -0.013543
		CHANNELS 3 Zrotation Yrotation Xrotation
		JOINT rknee
		{
			OFFSET -0.043257 -0.383688 -0.004843
			CHANNELS 3 Zrotation Yrotation Xrotation
			JOINT rankle
			{
				OFFSET 0.019056 -0.420046 -0.034562
				CHANNELS 3 Zrotation Yrotation Xrotation
				JOINT rtoe
				{
					OFFSET -0.034840 -0.062106 0.130323
					CHANNELS 3 Zrotation Yrotation Xrotation
					End Site
					{
						OFFSET 0.000000 0.000000 0.000000
					}
				}
			}
		}
	}
	JOINT lowerback
	{
		OFFSET 0.004439 0.124404 -0.038385
		CHANNELS 3 Zrotation Yrotation Xrotation
		JOINT upperback
		{
			OFFSET 0.004488 0.137956 0.026820
			CHANNELS 3 Zrotation Yrotation Xrotation
			JOINT chest
			{
				OFFSET -0.002265 0.056032 0.002855
				CHANNELS 3 Zrotation Yrotation Xrotation
				JOINT lowerneck
				{
					OFFSET -0.013390 0.211636 -0.033468
					CHANNELS 3 Zrotation Yrotation Xrotation
					JOINT upperneck
					{
						OFFSET 0.010113 0.088937 0.050410
						CHANNELS 3 Zrotation Yrotation Xrotation
						End Site
						{
							OFFSET 0.000000 0.000000 0.000000
						}
					}
				}
				JOINT lclavicle
				{
					OFFSET 0.071702 0.114000 -0.018898
					CHANNELS 3 Zrotation Yrotation Xrotation
					JOINT lshoulder
					{
						OFFSET 0.122921 0.045205 -0.019046
						CHANNELS 3 Zrotation Yrotation Xrotation
						JOINT lelbow
						{
							OFFSET 0.255332 -0.015649 -0.022946
							CHANNELS 3 Zrotation Yrotation Xrotation
							JOINT lwrist
							{
								OFFSET 0.265709 0.012698 -0.007375
								CHANNELS 3 Zrotation Yrotation Xrotation
								End Site
								{
									OFFSET 0.000000 0.000000 0.000000
								}
							}
						}
					}
				}
				JOINT rclavicle
				{
					OFFSET -0.082954 0.112472 -0.023707
					CHANNELS 3 Zrotation Yrotation Xrotation
					JOINT rshoulder
					{
						OFFSET -0.113228 0.046853 -0.008472
						CHANNELS 3 Zrotation Yrotation Xrotation
						JOINT relbow
						{
							OFFSET -0.260127 -0.014369 -0.031269
							CHANNELS 3 Zrotation Yrotation Xrotation
							JOINT rwrist
							{
								OFFSET -0.269108 0.006794 -0.006027
								CHANNELS 3 Zrotation Yrotation Xrotation
								End Site
								{
									OFFSET 0.000000 0.000000 0.000000
								}
							}
						}
					}
				}
			}
		}
	}
}
MOTION
Frames: 8
Frame Time: 0.033333
-0.520858 0.418898 0.954852 23.951887 1.662190 71.424545 19.062293 28.387104 -38.959196 6.720198 34.417261 96.912467 -2.253466 10.530753 25.834200 0.000000 -0.000000 0.000000 -2.653925 -17.564334 10.976383 -1.260591 -13.052556 27.232847 -11.291561 -21.969365 -24.445254 0.000000 -0.000000 0.000000 -8.043663 4.460899 18.555737 3.831423 -13.748818 4.502808 3.998509 -5.569922 1.575527 -3.009679 0.511569 36.878121 11.036955 18.039704 11.247293 -25.214116 -20.747062 13.678315 -11.101546 -13.913055 -17.856299 28.235037 -24.128771 -50.152088 44.760108 17.203019 -21.934412 18.198324 14.537565 9.395794 18.888132 8.184188 -15.518645 -26.134182 10.800859 -52.991877 -40.488213 -10.363493 -27.526664 
-0.522006 0.412076 0.958031 24.799937 1.854009 72.163433 19.272384 28.152172 -38.911125 7.845866 36.072168 97.757834 -2.514045 10.134608 26.238250 0.000000 -0.000000 0.000000 -2.307359 -17.852456 12.108735 -0.910040 -13.769342 24.456833 -11.105694 -20.698368 -23.529650 0.000000 -0.000000 0.000000 -8.837159 4.494312 16.430664 4.160956 -13.971617 4.340186 4.398862 -5.610937 0.799821 -3.370202 -0.326811 36.032940 11.579494 18.291573 10.305065 -25.110777 -19.590801 12.962334 -13.353466 -15.373491 -17.942388 35.363793 -27.940294 -58.734075 41.825772 21.576998 -25.953635 17.770990 13.023753 8.664841 19.713095 8.782672 -15.459743 -31.105244 14.555850 -58.343620 -38.224447 -13.391677 -30.666888 
-0.522167 0.403498 0.961621 25.458426 2.014388 73.171425 19.322705 27.732844 -38.610956 7.618314 36.587454 96.346641 -2.815505 8.660421 25.768464 0.000000 -0.000000 0.000000 -2.064183 -18.205826 13.372732 -0.488735 -14.529119 21.214682 -10.516153 -18.462802 -22.506358 0.000000 -0.000000 0.000000 -9.695349 4.510851 13.769530 4.529438 -14.051683 4.150592 4.855982 -5.628353 -0.353134 -3.608257 -1.449933 34.525303 12.069393 18.122569 9.053978 -25.160056 -17.768371 12.063512 -16.998211 -16.987361 -17.094226 45.543138 -33.390559 -69.438695 36.036189 24.804773 -32.304562 17.411932 10.980068 7.822761 21.225211 9.456644 -15.030508 -38.746601 20.670128 -65.678234 -33.827641 -16.150775 -36.540985 
-0.520976 0.395542 0.964721 25.484449 2.141525 74.173394 19.184800 27.206169 -38.011752 5.450036 35.047301 91.969504 -3.041867 6.233901 24.321927 0.000000 -0.000000 0.000000 -2.041868 -18.471188 14.360799 -0.061804 -15.030583 18.548673 -9.561249 -15.724904 -21.682237 0.000000 -0.000000 0.000000 -10.250806 4.502080 11.380450 4.863782 -13.887200 3.915072 5.228185 -5.615819 -1.572819 -3.430256 -2.503962 32.478850 12.144218 17.341687 7.845440 -25.343707 -15.674579 11.312776 -21.086192 -18.065454 -15.110695 56.515653 -39.022778 -79.297333 29.862025 24.356332 -39.211631 17.266766 9.023664 7.061403 23.029054 9.985878 -13.981556 -47.507095 27.639652 -73.075973 -28.078698 -16.527685 -44.112199 
-0.518640 0.388254 0.967465 24.791295 2.301396 75.247647 19.000025 26.336998 -36.929355 2.182165 31.481555 85.312096 -3.347492 3.216257 22.156075 0.000000 -0.000000 0.000000 -2.136109 -18.499479 14.929113 0.405139 -15.322058 16.510318 -8.271859 -12.703756 -20.965262 0.000000 -0.000000 0.000000 -10.499035 4.393877 9.159921 5.245026 -13.486357 3.649467 5.527431 -5.545750 -2.794284 -2.810209 -3.385651 29.975378 11.632106 16.069663 6.546725 -25.457824 -13.299663 10.776189 -25.370811 -18.577728 -12.148511 68.775005 -44.262585 -88.757855 24.663385 20.869093 -46.121677 17.246765 7.251800 6.373291 24.813506 10.499432 -12.170482 -57.392762 34.942513 -80.178980 -21.763784 -13.968462 -52.373144 
-0.514008 0.380323 0.970444 22.810117 2.486933 76.861925 19.055428 24.052770 -34.201439 -1.693703 25.169279 75.134020 -4.308159 -0.470792 18.758015 0.000000 -0.000000 0.000000 -2.387698 -17.850529 14.739867 1.018996 -15.625372 14.975802 -6.088535 -8.733826 -20.069405 0.000000 -0.000000 0.000000 -10.523922 4.005725 6.298331 5.889384 -12.619202 3.522893 5.855299 -5.347451 -4.387456 -1.433167 -4.087235 26.530341 9.974711 14.047483 4.628358 -25.248088 -9.907787 10.569012 -30.738333 -18.488071 -7.508880 86.227353 -49.088810 -100.818326 19.334887 13.189118 -54.837814 17.255260 5.364630 5.622853 26.312990 11.397508 -8.877403 -71.144374 43.878587 -88.453170 -14.434101 -6.749639 -61.614176 
-0.508551 0.375111 0.972594 20.304968 2.488493 78.343197 19.492594 20.748335 -30.299272 -3.849414 20.080190 66.011304 -5.507109 -2.411788 15.393850 0.000000 -0.000000 0.000000 -2.873298 -16.559673 13.793534 1.555282 -15.973332 14.637045 -3.805451 -5.543084 -19.231136 0.000000 -0.000000 0.000000 -10.430712 3.478357 3.858702 6.530142 -11.629128 3.778582 6.136549 -5.152994 -5.783020 0.143372 -4.219811 23.649196 7.783403 12.301793 3.032140 -24.714504 -6.932281 10.823785 -34.785585 -17.826262 -3.513904 100.882260 -51.032353 -110.519176 15.425515 4.465755 -61.340054 17.171755 4.184072 5.047645 26.425527 12.664954 -5.700086 -82.783588 50.587685 -94.789438 -9.479287 1.505373 -66.772238 
-0.501089 0.370879 0.974739 17.010954 2.342243 79.825561 20.062177 16.059950 -24.899388 -4.923575 16.119051 56.467796 -6.817853 -2.769594 11.216792 0.000000 -0.000000 0.000000 -3.757793 -14.590728 12.282206 2.160906 -16.447364 15.070110 -1.070929 -2.404390 -18.153373 0.000000 -0.000000 0.000000 -10.126659 2.781726 1.379560 7.196740 -10.439723 4.465011 6.446925 -5.011198 -7.288121 2.089674 -3.864242 20.533968 4.914001 10.652665 1.836210 -23.821393 -3.917369 11.320723 -38.495539 -16.543321 0.347307 114.426252 -51.539722 -119.272018 11.078002 -6.767428 -66.611042 16.906952 3.397878 4.439437 25.426972 14.820808 -2.440129 -94.482604 56.921922 -101.226439 -4.748299 11.098124 -69.345333 
